<mxfile host="Electron" modified="2023-09-14T15:09:28.411Z" agent="Mozilla/5.0 (Windows NT 10.0; Win64; x64) AppleWebKit/537.36 (KHTML, like Gecko) draw.io/21.6.5 Chrome/114.0.5735.243 Electron/25.3.1 Safari/537.36" etag="4iZEt4t89FXXlga6FAvc" version="21.6.5" type="device">
  <diagram name="Page-1" id="5Xli3TA7FPF2vmAdpTPI">
    <mxGraphModel dx="1715" dy="966" grid="0" gridSize="10" guides="1" tooltips="1" connect="1" arrows="1" fold="1" page="0" pageScale="1" pageWidth="1100" pageHeight="850" math="0" shadow="0">
      <root>
        <mxCell id="0" />
        <mxCell id="1" parent="0" />
        <mxCell id="8mlJLfbpaPkKjLBRqVDz-180" value="" style="rounded=0;whiteSpace=wrap;html=1;fontSize=16;fillColor=#FFFFFF;" vertex="1" parent="1">
          <mxGeometry x="-351" y="-1" width="539" height="297" as="geometry" />
        </mxCell>
        <mxCell id="8mlJLfbpaPkKjLBRqVDz-178" value="" style="rounded=0;whiteSpace=wrap;html=1;fontSize=16;fillColor=#ffffff;" vertex="1" parent="1">
          <mxGeometry x="-195" y="380" width="221" height="183.65" as="geometry" />
        </mxCell>
        <mxCell id="8mlJLfbpaPkKjLBRqVDz-177" value="" style="rounded=0;whiteSpace=wrap;html=1;fontSize=16;fillColor=#ffffff;" vertex="1" parent="1">
          <mxGeometry x="-456.5" y="576" width="198" height="183.65" as="geometry" />
        </mxCell>
        <mxCell id="8mlJLfbpaPkKjLBRqVDz-176" value="" style="rounded=0;whiteSpace=wrap;html=1;fontSize=16;fillColor=#ffffff;" vertex="1" parent="1">
          <mxGeometry x="-451" y="347.35" width="155" height="183.65" as="geometry" />
        </mxCell>
        <mxCell id="8mlJLfbpaPkKjLBRqVDz-175" value="" style="rounded=0;whiteSpace=wrap;html=1;fontSize=16;" vertex="1" parent="1">
          <mxGeometry x="329" y="-62" width="872" height="308" as="geometry" />
        </mxCell>
        <mxCell id="8mlJLfbpaPkKjLBRqVDz-2" value="" style="ellipse;whiteSpace=wrap;html=1;aspect=fixed;fontSize=16;" vertex="1" parent="1">
          <mxGeometry x="-435" y="400" width="120" height="120" as="geometry" />
        </mxCell>
        <mxCell id="8j5Ed2XjUoe-OwGtXJB8-7" value="" style="shape=cylinder3;whiteSpace=wrap;html=1;boundedLbl=1;backgroundOutline=1;size=15;fontSize=16;fillColor=#FFFFFF;strokeColor=#000000;" parent="1" vertex="1">
          <mxGeometry x="27" y="182" width="60" height="44" as="geometry" />
        </mxCell>
        <mxCell id="8j5Ed2XjUoe-OwGtXJB8-1" value="" style="endArrow=none;html=1;rounded=0;fontSize=12;startSize=8;endSize=8;curved=1;strokeColor=#000000;" parent="1" edge="1">
          <mxGeometry width="50" height="50" relative="1" as="geometry">
            <mxPoint x="-305" y="53" as="sourcePoint" />
            <mxPoint x="56" y="58" as="targetPoint" />
          </mxGeometry>
        </mxCell>
        <mxCell id="8j5Ed2XjUoe-OwGtXJB8-2" value="" style="endArrow=none;html=1;rounded=0;fontSize=12;startSize=8;endSize=8;curved=1;strokeColor=#000000;" parent="1" edge="1">
          <mxGeometry width="50" height="50" relative="1" as="geometry">
            <mxPoint x="55" y="194" as="sourcePoint" />
            <mxPoint x="55" y="57" as="targetPoint" />
          </mxGeometry>
        </mxCell>
        <mxCell id="8j5Ed2XjUoe-OwGtXJB8-3" value="" style="endArrow=none;html=1;rounded=0;fontSize=12;startSize=8;endSize=8;curved=1;strokeColor=#000000;" parent="1" edge="1">
          <mxGeometry width="50" height="50" relative="1" as="geometry">
            <mxPoint x="54" y="196" as="sourcePoint" />
            <mxPoint x="94" y="67" as="targetPoint" />
          </mxGeometry>
        </mxCell>
        <mxCell id="8j5Ed2XjUoe-OwGtXJB8-4" value="Traverse" style="text;html=1;align=center;verticalAlign=middle;whiteSpace=wrap;rounded=0;fontSize=16;fontColor=#000000;" parent="1" vertex="1">
          <mxGeometry x="-195" y="19" width="123" height="30" as="geometry" />
        </mxCell>
        <mxCell id="8j5Ed2XjUoe-OwGtXJB8-5" value="Down" style="text;html=1;align=center;verticalAlign=middle;whiteSpace=wrap;rounded=0;fontSize=16;fontColor=#000000;" parent="1" vertex="1">
          <mxGeometry x="-57" y="84" width="123" height="30" as="geometry" />
        </mxCell>
        <mxCell id="8j5Ed2XjUoe-OwGtXJB8-6" value="Up" style="text;html=1;align=center;verticalAlign=middle;whiteSpace=wrap;rounded=0;fontSize=16;fontColor=#000000;" parent="1" vertex="1">
          <mxGeometry x="74" y="102" width="123" height="30" as="geometry" />
        </mxCell>
        <mxCell id="8j5Ed2XjUoe-OwGtXJB8-8" value="" style="shape=flexArrow;endArrow=classic;startArrow=classic;html=1;rounded=0;fontSize=12;startSize=8;endSize=8;curved=1;strokeColor=#000000;" parent="1" edge="1">
          <mxGeometry width="100" height="100" relative="1" as="geometry">
            <mxPoint x="-3" y="252" as="sourcePoint" />
            <mxPoint x="125" y="252" as="targetPoint" />
          </mxGeometry>
        </mxCell>
        <mxCell id="8mlJLfbpaPkKjLBRqVDz-1" value="" style="ellipse;whiteSpace=wrap;html=1;aspect=fixed;fontSize=16;" vertex="1" parent="1">
          <mxGeometry x="-415" y="420" width="80" height="80" as="geometry" />
        </mxCell>
        <mxCell id="8mlJLfbpaPkKjLBRqVDz-3" value="" style="endArrow=none;html=1;rounded=0;fontSize=12;startSize=8;endSize=8;curved=1;" edge="1" parent="1" source="8mlJLfbpaPkKjLBRqVDz-1">
          <mxGeometry width="50" height="50" relative="1" as="geometry">
            <mxPoint x="-425" y="450" as="sourcePoint" />
            <mxPoint x="-375" y="400" as="targetPoint" />
          </mxGeometry>
        </mxCell>
        <mxCell id="8mlJLfbpaPkKjLBRqVDz-4" style="edgeStyle=none;curved=1;rounded=0;orthogonalLoop=1;jettySize=auto;html=1;exitX=0.5;exitY=0;exitDx=0;exitDy=0;fontSize=12;startSize=8;endSize=8;" edge="1" parent="1" source="8mlJLfbpaPkKjLBRqVDz-2" target="8mlJLfbpaPkKjLBRqVDz-2">
          <mxGeometry relative="1" as="geometry" />
        </mxCell>
        <mxCell id="8mlJLfbpaPkKjLBRqVDz-5" value="" style="endArrow=none;html=1;rounded=0;fontSize=12;startSize=8;endSize=8;curved=1;entryX=1;entryY=0;entryDx=0;entryDy=0;exitX=1;exitY=0;exitDx=0;exitDy=0;" edge="1" parent="1" source="8mlJLfbpaPkKjLBRqVDz-1" target="8mlJLfbpaPkKjLBRqVDz-2">
          <mxGeometry width="50" height="50" relative="1" as="geometry">
            <mxPoint x="-365" y="430" as="sourcePoint" />
            <mxPoint x="-365" y="410" as="targetPoint" />
          </mxGeometry>
        </mxCell>
        <mxCell id="8mlJLfbpaPkKjLBRqVDz-6" value="" style="endArrow=none;html=1;rounded=0;fontSize=12;startSize=8;endSize=8;curved=1;exitX=1;exitY=0.5;exitDx=0;exitDy=0;entryX=1;entryY=0.5;entryDx=0;entryDy=0;" edge="1" parent="1" source="8mlJLfbpaPkKjLBRqVDz-1" target="8mlJLfbpaPkKjLBRqVDz-2">
          <mxGeometry width="50" height="50" relative="1" as="geometry">
            <mxPoint x="-355" y="440" as="sourcePoint" />
            <mxPoint x="-355" y="420" as="targetPoint" />
          </mxGeometry>
        </mxCell>
        <mxCell id="8mlJLfbpaPkKjLBRqVDz-7" value="" style="endArrow=none;html=1;rounded=0;fontSize=12;startSize=8;endSize=8;curved=1;exitX=0.5;exitY=1;exitDx=0;exitDy=0;entryX=0.5;entryY=1;entryDx=0;entryDy=0;" edge="1" parent="1" source="8mlJLfbpaPkKjLBRqVDz-2" target="8mlJLfbpaPkKjLBRqVDz-1">
          <mxGeometry width="50" height="50" relative="1" as="geometry">
            <mxPoint x="-345" y="450" as="sourcePoint" />
            <mxPoint x="-345" y="430" as="targetPoint" />
          </mxGeometry>
        </mxCell>
        <mxCell id="8mlJLfbpaPkKjLBRqVDz-8" value="" style="endArrow=none;html=1;rounded=0;fontSize=12;startSize=8;endSize=8;curved=1;exitX=1;exitY=1;exitDx=0;exitDy=0;" edge="1" parent="1" source="8mlJLfbpaPkKjLBRqVDz-2" target="8mlJLfbpaPkKjLBRqVDz-1">
          <mxGeometry width="50" height="50" relative="1" as="geometry">
            <mxPoint x="-335" y="460" as="sourcePoint" />
            <mxPoint x="-335" y="440" as="targetPoint" />
          </mxGeometry>
        </mxCell>
        <mxCell id="8mlJLfbpaPkKjLBRqVDz-9" value="" style="endArrow=none;html=1;rounded=0;fontSize=12;startSize=8;endSize=8;curved=1;entryX=0;entryY=1;entryDx=0;entryDy=0;exitX=0;exitY=1;exitDx=0;exitDy=0;" edge="1" parent="1" source="8mlJLfbpaPkKjLBRqVDz-1" target="8mlJLfbpaPkKjLBRqVDz-2">
          <mxGeometry width="50" height="50" relative="1" as="geometry">
            <mxPoint x="-325" y="470" as="sourcePoint" />
            <mxPoint x="-325" y="450" as="targetPoint" />
          </mxGeometry>
        </mxCell>
        <mxCell id="8mlJLfbpaPkKjLBRqVDz-10" value="" style="endArrow=none;html=1;rounded=0;fontSize=12;startSize=8;endSize=8;curved=1;entryX=0;entryY=0.5;entryDx=0;entryDy=0;exitX=0;exitY=0.5;exitDx=0;exitDy=0;" edge="1" parent="1" source="8mlJLfbpaPkKjLBRqVDz-2" target="8mlJLfbpaPkKjLBRqVDz-1">
          <mxGeometry width="50" height="50" relative="1" as="geometry">
            <mxPoint x="-315" y="480" as="sourcePoint" />
            <mxPoint x="-315" y="460" as="targetPoint" />
          </mxGeometry>
        </mxCell>
        <mxCell id="8mlJLfbpaPkKjLBRqVDz-11" value="" style="endArrow=none;html=1;rounded=0;fontSize=12;startSize=8;endSize=8;curved=1;entryX=0;entryY=0;entryDx=0;entryDy=0;" edge="1" parent="1" source="8mlJLfbpaPkKjLBRqVDz-1" target="8mlJLfbpaPkKjLBRqVDz-2">
          <mxGeometry width="50" height="50" relative="1" as="geometry">
            <mxPoint x="-305" y="490" as="sourcePoint" />
            <mxPoint x="-305" y="470" as="targetPoint" />
          </mxGeometry>
        </mxCell>
        <mxCell id="8mlJLfbpaPkKjLBRqVDz-12" value="" style="endArrow=classic;html=1;rounded=0;fontSize=12;startSize=8;endSize=8;curved=1;strokeColor=#000000;" edge="1" parent="1">
          <mxGeometry width="50" height="50" relative="1" as="geometry">
            <mxPoint x="-364" y="364" as="sourcePoint" />
            <mxPoint x="-369" y="400" as="targetPoint" />
          </mxGeometry>
        </mxCell>
        <mxCell id="8mlJLfbpaPkKjLBRqVDz-124" value="1" style="edgeLabel;html=1;align=center;verticalAlign=middle;resizable=0;points=[];fontSize=8;fontColor=#000000;labelBackgroundColor=#ffffff;" vertex="1" connectable="0" parent="8mlJLfbpaPkKjLBRqVDz-12">
          <mxGeometry x="-0.6305" relative="1" as="geometry">
            <mxPoint x="1" y="-13" as="offset" />
          </mxGeometry>
        </mxCell>
        <mxCell id="8mlJLfbpaPkKjLBRqVDz-13" value="" style="endArrow=classic;html=1;rounded=0;fontSize=12;startSize=8;endSize=8;curved=1;strokeColor=#000000;" edge="1" parent="1">
          <mxGeometry width="50" height="50" relative="1" as="geometry">
            <mxPoint x="-353" y="367" as="sourcePoint" />
            <mxPoint x="-358" y="403" as="targetPoint" />
          </mxGeometry>
        </mxCell>
        <mxCell id="8mlJLfbpaPkKjLBRqVDz-123" value="2" style="edgeLabel;html=1;align=center;verticalAlign=middle;resizable=0;points=[];fontSize=8;fontColor=#000000;labelBackgroundColor=#ffffff;" vertex="1" connectable="0" parent="8mlJLfbpaPkKjLBRqVDz-13">
          <mxGeometry x="-0.7072" relative="1" as="geometry">
            <mxPoint x="1" y="-12" as="offset" />
          </mxGeometry>
        </mxCell>
        <mxCell id="8mlJLfbpaPkKjLBRqVDz-14" value="" style="endArrow=classic;html=1;rounded=0;fontSize=12;startSize=8;endSize=8;curved=1;strokeColor=#000000;" edge="1" parent="1">
          <mxGeometry width="50" height="50" relative="1" as="geometry">
            <mxPoint x="-340" y="371" as="sourcePoint" />
            <mxPoint x="-345" y="407" as="targetPoint" />
          </mxGeometry>
        </mxCell>
        <mxCell id="8mlJLfbpaPkKjLBRqVDz-91" value="3" style="edgeLabel;html=1;align=center;verticalAlign=middle;resizable=0;points=[];fontSize=8;fontColor=#000000;labelBackgroundColor=#ffffff;" vertex="1" connectable="0" parent="8mlJLfbpaPkKjLBRqVDz-14">
          <mxGeometry x="-0.514" relative="1" as="geometry">
            <mxPoint x="2" y="-15" as="offset" />
          </mxGeometry>
        </mxCell>
        <mxCell id="8mlJLfbpaPkKjLBRqVDz-15" value="&lt;p style=&quot;line-height: 100%;&quot;&gt;&lt;font style=&quot;font-size: 8px;&quot;&gt;1&lt;/font&gt;&lt;/p&gt;" style="text;html=1;strokeColor=none;fillColor=none;align=center;verticalAlign=middle;whiteSpace=wrap;rounded=0;fontSize=16;" vertex="1" parent="1">
          <mxGeometry x="-370" y="403" width="25" height="22" as="geometry" />
        </mxCell>
        <mxCell id="8mlJLfbpaPkKjLBRqVDz-16" value="&lt;p style=&quot;line-height: 100%;&quot;&gt;&lt;font style=&quot;font-size: 8px;&quot;&gt;2&lt;/font&gt;&lt;/p&gt;" style="text;html=1;strokeColor=none;fillColor=none;align=center;verticalAlign=middle;whiteSpace=wrap;rounded=0;fontSize=16;" vertex="1" parent="1">
          <mxGeometry x="-340" y="429" width="25" height="22" as="geometry" />
        </mxCell>
        <mxCell id="8mlJLfbpaPkKjLBRqVDz-17" value="&lt;p style=&quot;line-height: 100%;&quot;&gt;&lt;font style=&quot;font-size: 8px;&quot;&gt;3&lt;/font&gt;&lt;/p&gt;" style="text;html=1;strokeColor=none;fillColor=none;align=center;verticalAlign=middle;whiteSpace=wrap;rounded=0;fontSize=16;" vertex="1" parent="1">
          <mxGeometry x="-343" y="468" width="25" height="22" as="geometry" />
        </mxCell>
        <mxCell id="8mlJLfbpaPkKjLBRqVDz-18" value="&lt;p style=&quot;line-height: 100%;&quot;&gt;&lt;font style=&quot;font-size: 8px;&quot;&gt;4&lt;/font&gt;&lt;/p&gt;" style="text;html=1;strokeColor=none;fillColor=none;align=center;verticalAlign=middle;whiteSpace=wrap;rounded=0;fontSize=16;" vertex="1" parent="1">
          <mxGeometry x="-370" y="495" width="25" height="22" as="geometry" />
        </mxCell>
        <mxCell id="8mlJLfbpaPkKjLBRqVDz-19" value="&lt;p style=&quot;line-height: 100%;&quot;&gt;&lt;font style=&quot;font-size: 8px;&quot;&gt;5&lt;/font&gt;&lt;/p&gt;" style="text;html=1;strokeColor=none;fillColor=none;align=center;verticalAlign=middle;whiteSpace=wrap;rounded=0;fontSize=16;" vertex="1" parent="1">
          <mxGeometry x="-406" y="495" width="25" height="22" as="geometry" />
        </mxCell>
        <mxCell id="8mlJLfbpaPkKjLBRqVDz-20" value="&lt;p style=&quot;line-height: 100%;&quot;&gt;&lt;font style=&quot;font-size: 8px;&quot;&gt;6&lt;/font&gt;&lt;/p&gt;" style="text;html=1;strokeColor=none;fillColor=none;align=center;verticalAlign=middle;whiteSpace=wrap;rounded=0;fontSize=16;" vertex="1" parent="1">
          <mxGeometry x="-435" y="468" width="25" height="22" as="geometry" />
        </mxCell>
        <mxCell id="8mlJLfbpaPkKjLBRqVDz-21" value="&lt;p style=&quot;line-height: 100%;&quot;&gt;&lt;font style=&quot;font-size: 8px;&quot;&gt;7&lt;/font&gt;&lt;/p&gt;" style="text;html=1;strokeColor=none;fillColor=none;align=center;verticalAlign=middle;whiteSpace=wrap;rounded=0;fontSize=16;" vertex="1" parent="1">
          <mxGeometry x="-435" y="429" width="25" height="22" as="geometry" />
        </mxCell>
        <mxCell id="8mlJLfbpaPkKjLBRqVDz-22" value="&lt;p style=&quot;line-height: 100%;&quot;&gt;&lt;font style=&quot;font-size: 8px;&quot;&gt;8&lt;/font&gt;&lt;/p&gt;" style="text;html=1;strokeColor=none;fillColor=none;align=center;verticalAlign=middle;whiteSpace=wrap;rounded=0;fontSize=16;" vertex="1" parent="1">
          <mxGeometry x="-406" y="403" width="25" height="22" as="geometry" />
        </mxCell>
        <mxCell id="8mlJLfbpaPkKjLBRqVDz-23" value="" style="ellipse;whiteSpace=wrap;html=1;aspect=fixed;fontSize=16;" vertex="1" parent="1">
          <mxGeometry x="-446.12" y="626.54" width="120" height="120" as="geometry" />
        </mxCell>
        <mxCell id="8mlJLfbpaPkKjLBRqVDz-24" value="" style="ellipse;whiteSpace=wrap;html=1;aspect=fixed;fontSize=16;" vertex="1" parent="1">
          <mxGeometry x="-426.12" y="646.54" width="80" height="80" as="geometry" />
        </mxCell>
        <mxCell id="8mlJLfbpaPkKjLBRqVDz-25" value="" style="endArrow=none;html=1;rounded=0;fontSize=12;startSize=8;endSize=8;curved=1;" edge="1" parent="1" source="8mlJLfbpaPkKjLBRqVDz-24">
          <mxGeometry width="50" height="50" relative="1" as="geometry">
            <mxPoint x="-436.12" y="676.54" as="sourcePoint" />
            <mxPoint x="-386.12" y="626.54" as="targetPoint" />
          </mxGeometry>
        </mxCell>
        <mxCell id="8mlJLfbpaPkKjLBRqVDz-27" value="" style="endArrow=none;html=1;rounded=0;fontSize=12;startSize=8;endSize=8;curved=1;entryX=1;entryY=0;entryDx=0;entryDy=0;exitX=1;exitY=0;exitDx=0;exitDy=0;" edge="1" parent="1" source="8mlJLfbpaPkKjLBRqVDz-24" target="8mlJLfbpaPkKjLBRqVDz-23">
          <mxGeometry width="50" height="50" relative="1" as="geometry">
            <mxPoint x="-376.12" y="656.54" as="sourcePoint" />
            <mxPoint x="-376.12" y="636.54" as="targetPoint" />
          </mxGeometry>
        </mxCell>
        <mxCell id="8mlJLfbpaPkKjLBRqVDz-28" value="" style="endArrow=none;html=1;rounded=0;fontSize=12;startSize=8;endSize=8;curved=1;exitX=1;exitY=0.5;exitDx=0;exitDy=0;entryX=1;entryY=0.5;entryDx=0;entryDy=0;" edge="1" parent="1" source="8mlJLfbpaPkKjLBRqVDz-24" target="8mlJLfbpaPkKjLBRqVDz-23">
          <mxGeometry width="50" height="50" relative="1" as="geometry">
            <mxPoint x="-366.12" y="666.54" as="sourcePoint" />
            <mxPoint x="-366.12" y="646.54" as="targetPoint" />
          </mxGeometry>
        </mxCell>
        <mxCell id="8mlJLfbpaPkKjLBRqVDz-29" value="" style="endArrow=none;html=1;rounded=0;fontSize=12;startSize=8;endSize=8;curved=1;exitX=0.5;exitY=1;exitDx=0;exitDy=0;entryX=0.5;entryY=1;entryDx=0;entryDy=0;" edge="1" parent="1" source="8mlJLfbpaPkKjLBRqVDz-23" target="8mlJLfbpaPkKjLBRqVDz-24">
          <mxGeometry width="50" height="50" relative="1" as="geometry">
            <mxPoint x="-356.12" y="676.54" as="sourcePoint" />
            <mxPoint x="-356.12" y="656.54" as="targetPoint" />
          </mxGeometry>
        </mxCell>
        <mxCell id="8mlJLfbpaPkKjLBRqVDz-30" value="" style="endArrow=none;html=1;rounded=0;fontSize=12;startSize=8;endSize=8;curved=1;exitX=1;exitY=1;exitDx=0;exitDy=0;" edge="1" parent="1" source="8mlJLfbpaPkKjLBRqVDz-23" target="8mlJLfbpaPkKjLBRqVDz-24">
          <mxGeometry width="50" height="50" relative="1" as="geometry">
            <mxPoint x="-346.12" y="686.54" as="sourcePoint" />
            <mxPoint x="-346.12" y="666.54" as="targetPoint" />
          </mxGeometry>
        </mxCell>
        <mxCell id="8mlJLfbpaPkKjLBRqVDz-31" value="" style="endArrow=none;html=1;rounded=0;fontSize=12;startSize=8;endSize=8;curved=1;entryX=0;entryY=1;entryDx=0;entryDy=0;exitX=0;exitY=1;exitDx=0;exitDy=0;" edge="1" parent="1" source="8mlJLfbpaPkKjLBRqVDz-24" target="8mlJLfbpaPkKjLBRqVDz-23">
          <mxGeometry width="50" height="50" relative="1" as="geometry">
            <mxPoint x="-336.12" y="696.54" as="sourcePoint" />
            <mxPoint x="-336.12" y="676.54" as="targetPoint" />
          </mxGeometry>
        </mxCell>
        <mxCell id="8mlJLfbpaPkKjLBRqVDz-32" value="" style="endArrow=none;html=1;rounded=0;fontSize=12;startSize=8;endSize=8;curved=1;entryX=0;entryY=0.5;entryDx=0;entryDy=0;exitX=0;exitY=0.5;exitDx=0;exitDy=0;" edge="1" parent="1" source="8mlJLfbpaPkKjLBRqVDz-23" target="8mlJLfbpaPkKjLBRqVDz-24">
          <mxGeometry width="50" height="50" relative="1" as="geometry">
            <mxPoint x="-326.12" y="706.54" as="sourcePoint" />
            <mxPoint x="-326.12" y="686.54" as="targetPoint" />
          </mxGeometry>
        </mxCell>
        <mxCell id="8mlJLfbpaPkKjLBRqVDz-33" value="" style="endArrow=none;html=1;rounded=0;fontSize=12;startSize=8;endSize=8;curved=1;entryX=0;entryY=0;entryDx=0;entryDy=0;" edge="1" parent="1" source="8mlJLfbpaPkKjLBRqVDz-24" target="8mlJLfbpaPkKjLBRqVDz-23">
          <mxGeometry width="50" height="50" relative="1" as="geometry">
            <mxPoint x="-316.12" y="716.54" as="sourcePoint" />
            <mxPoint x="-316.12" y="696.54" as="targetPoint" />
          </mxGeometry>
        </mxCell>
        <mxCell id="8mlJLfbpaPkKjLBRqVDz-37" value="&lt;p style=&quot;line-height: 100%;&quot;&gt;&lt;font style=&quot;font-size: 8px;&quot;&gt;1&lt;/font&gt;&lt;/p&gt;" style="text;html=1;strokeColor=none;fillColor=none;align=center;verticalAlign=middle;whiteSpace=wrap;rounded=0;fontSize=16;" vertex="1" parent="1">
          <mxGeometry x="-381.12" y="629.54" width="25" height="22" as="geometry" />
        </mxCell>
        <mxCell id="8mlJLfbpaPkKjLBRqVDz-38" value="&lt;p style=&quot;line-height: 100%;&quot;&gt;&lt;font style=&quot;font-size: 8px;&quot;&gt;2&lt;/font&gt;&lt;/p&gt;" style="text;html=1;strokeColor=none;fillColor=none;align=center;verticalAlign=middle;whiteSpace=wrap;rounded=0;fontSize=16;" vertex="1" parent="1">
          <mxGeometry x="-351.12" y="655.54" width="25" height="22" as="geometry" />
        </mxCell>
        <mxCell id="8mlJLfbpaPkKjLBRqVDz-39" value="&lt;p style=&quot;line-height: 100%;&quot;&gt;&lt;font style=&quot;font-size: 8px;&quot;&gt;3&lt;/font&gt;&lt;/p&gt;" style="text;html=1;strokeColor=none;fillColor=none;align=center;verticalAlign=middle;whiteSpace=wrap;rounded=0;fontSize=16;" vertex="1" parent="1">
          <mxGeometry x="-354.12" y="694.54" width="25" height="22" as="geometry" />
        </mxCell>
        <mxCell id="8mlJLfbpaPkKjLBRqVDz-40" value="&lt;p style=&quot;line-height: 100%;&quot;&gt;&lt;font style=&quot;font-size: 8px;&quot;&gt;4&lt;/font&gt;&lt;/p&gt;" style="text;html=1;strokeColor=none;fillColor=none;align=center;verticalAlign=middle;whiteSpace=wrap;rounded=0;fontSize=16;" vertex="1" parent="1">
          <mxGeometry x="-381.12" y="721.54" width="25" height="22" as="geometry" />
        </mxCell>
        <mxCell id="8mlJLfbpaPkKjLBRqVDz-41" value="&lt;p style=&quot;line-height: 100%;&quot;&gt;&lt;font style=&quot;font-size: 8px;&quot;&gt;5&lt;/font&gt;&lt;/p&gt;" style="text;html=1;strokeColor=none;fillColor=none;align=center;verticalAlign=middle;whiteSpace=wrap;rounded=0;fontSize=16;" vertex="1" parent="1">
          <mxGeometry x="-417.12" y="721.54" width="25" height="22" as="geometry" />
        </mxCell>
        <mxCell id="8mlJLfbpaPkKjLBRqVDz-42" value="&lt;p style=&quot;line-height: 100%;&quot;&gt;&lt;font style=&quot;font-size: 8px;&quot;&gt;6&lt;/font&gt;&lt;/p&gt;" style="text;html=1;strokeColor=none;fillColor=none;align=center;verticalAlign=middle;whiteSpace=wrap;rounded=0;fontSize=16;" vertex="1" parent="1">
          <mxGeometry x="-446.12" y="694.54" width="25" height="22" as="geometry" />
        </mxCell>
        <mxCell id="8mlJLfbpaPkKjLBRqVDz-43" value="&lt;p style=&quot;line-height: 100%;&quot;&gt;&lt;font style=&quot;font-size: 8px;&quot;&gt;7&lt;/font&gt;&lt;/p&gt;" style="text;html=1;strokeColor=none;fillColor=none;align=center;verticalAlign=middle;whiteSpace=wrap;rounded=0;fontSize=16;" vertex="1" parent="1">
          <mxGeometry x="-446.12" y="655.54" width="25" height="22" as="geometry" />
        </mxCell>
        <mxCell id="8mlJLfbpaPkKjLBRqVDz-44" value="&lt;p style=&quot;line-height: 100%;&quot;&gt;&lt;font style=&quot;font-size: 8px;&quot;&gt;8&lt;/font&gt;&lt;/p&gt;" style="text;html=1;strokeColor=none;fillColor=none;align=center;verticalAlign=middle;whiteSpace=wrap;rounded=0;fontSize=16;" vertex="1" parent="1">
          <mxGeometry x="-417.12" y="629.54" width="25" height="22" as="geometry" />
        </mxCell>
        <mxCell id="8mlJLfbpaPkKjLBRqVDz-45" value="" style="ellipse;whiteSpace=wrap;html=1;aspect=fixed;fontSize=16;" vertex="1" parent="1">
          <mxGeometry x="-144" y="400" width="120" height="120" as="geometry" />
        </mxCell>
        <mxCell id="8mlJLfbpaPkKjLBRqVDz-46" value="" style="ellipse;whiteSpace=wrap;html=1;aspect=fixed;fontSize=16;" vertex="1" parent="1">
          <mxGeometry x="-124" y="420" width="80" height="80" as="geometry" />
        </mxCell>
        <mxCell id="8mlJLfbpaPkKjLBRqVDz-47" value="" style="endArrow=none;html=1;rounded=0;fontSize=12;startSize=8;endSize=8;curved=1;" edge="1" parent="1" source="8mlJLfbpaPkKjLBRqVDz-46">
          <mxGeometry width="50" height="50" relative="1" as="geometry">
            <mxPoint x="-134" y="450" as="sourcePoint" />
            <mxPoint x="-84" y="400" as="targetPoint" />
          </mxGeometry>
        </mxCell>
        <mxCell id="8mlJLfbpaPkKjLBRqVDz-49" value="" style="endArrow=none;html=1;rounded=0;fontSize=12;startSize=8;endSize=8;curved=1;entryX=1;entryY=0;entryDx=0;entryDy=0;exitX=1;exitY=0;exitDx=0;exitDy=0;" edge="1" parent="1" source="8mlJLfbpaPkKjLBRqVDz-46" target="8mlJLfbpaPkKjLBRqVDz-45">
          <mxGeometry width="50" height="50" relative="1" as="geometry">
            <mxPoint x="-74" y="430" as="sourcePoint" />
            <mxPoint x="-74" y="410" as="targetPoint" />
          </mxGeometry>
        </mxCell>
        <mxCell id="8mlJLfbpaPkKjLBRqVDz-50" value="" style="endArrow=none;html=1;rounded=0;fontSize=12;startSize=8;endSize=8;curved=1;exitX=1;exitY=0.5;exitDx=0;exitDy=0;entryX=1;entryY=0.5;entryDx=0;entryDy=0;" edge="1" parent="1" source="8mlJLfbpaPkKjLBRqVDz-46" target="8mlJLfbpaPkKjLBRqVDz-45">
          <mxGeometry width="50" height="50" relative="1" as="geometry">
            <mxPoint x="-64" y="440" as="sourcePoint" />
            <mxPoint x="-64" y="420" as="targetPoint" />
          </mxGeometry>
        </mxCell>
        <mxCell id="8mlJLfbpaPkKjLBRqVDz-51" value="" style="endArrow=none;html=1;rounded=0;fontSize=12;startSize=8;endSize=8;curved=1;exitX=0.5;exitY=1;exitDx=0;exitDy=0;entryX=0.5;entryY=1;entryDx=0;entryDy=0;" edge="1" parent="1" source="8mlJLfbpaPkKjLBRqVDz-45" target="8mlJLfbpaPkKjLBRqVDz-46">
          <mxGeometry width="50" height="50" relative="1" as="geometry">
            <mxPoint x="-54" y="450" as="sourcePoint" />
            <mxPoint x="-54" y="430" as="targetPoint" />
          </mxGeometry>
        </mxCell>
        <mxCell id="8mlJLfbpaPkKjLBRqVDz-52" value="" style="endArrow=none;html=1;rounded=0;fontSize=12;startSize=8;endSize=8;curved=1;exitX=1;exitY=1;exitDx=0;exitDy=0;" edge="1" parent="1" source="8mlJLfbpaPkKjLBRqVDz-45" target="8mlJLfbpaPkKjLBRqVDz-46">
          <mxGeometry width="50" height="50" relative="1" as="geometry">
            <mxPoint x="-44" y="460" as="sourcePoint" />
            <mxPoint x="-44" y="440" as="targetPoint" />
          </mxGeometry>
        </mxCell>
        <mxCell id="8mlJLfbpaPkKjLBRqVDz-53" value="" style="endArrow=none;html=1;rounded=0;fontSize=12;startSize=8;endSize=8;curved=1;entryX=0;entryY=1;entryDx=0;entryDy=0;exitX=0;exitY=1;exitDx=0;exitDy=0;" edge="1" parent="1" source="8mlJLfbpaPkKjLBRqVDz-46" target="8mlJLfbpaPkKjLBRqVDz-45">
          <mxGeometry width="50" height="50" relative="1" as="geometry">
            <mxPoint x="-34" y="470" as="sourcePoint" />
            <mxPoint x="-34" y="450" as="targetPoint" />
          </mxGeometry>
        </mxCell>
        <mxCell id="8mlJLfbpaPkKjLBRqVDz-54" value="" style="endArrow=none;html=1;rounded=0;fontSize=12;startSize=8;endSize=8;curved=1;entryX=0;entryY=0.5;entryDx=0;entryDy=0;exitX=0;exitY=0.5;exitDx=0;exitDy=0;" edge="1" parent="1" source="8mlJLfbpaPkKjLBRqVDz-45" target="8mlJLfbpaPkKjLBRqVDz-46">
          <mxGeometry width="50" height="50" relative="1" as="geometry">
            <mxPoint x="-24" y="480" as="sourcePoint" />
            <mxPoint x="-24" y="460" as="targetPoint" />
          </mxGeometry>
        </mxCell>
        <mxCell id="8mlJLfbpaPkKjLBRqVDz-55" value="" style="endArrow=none;html=1;rounded=0;fontSize=12;startSize=8;endSize=8;curved=1;entryX=0;entryY=0;entryDx=0;entryDy=0;" edge="1" parent="1" source="8mlJLfbpaPkKjLBRqVDz-46" target="8mlJLfbpaPkKjLBRqVDz-45">
          <mxGeometry width="50" height="50" relative="1" as="geometry">
            <mxPoint x="-14" y="490" as="sourcePoint" />
            <mxPoint x="-14" y="470" as="targetPoint" />
          </mxGeometry>
        </mxCell>
        <mxCell id="8mlJLfbpaPkKjLBRqVDz-59" value="&lt;p style=&quot;line-height: 100%;&quot;&gt;&lt;font style=&quot;font-size: 8px;&quot;&gt;1&lt;/font&gt;&lt;/p&gt;" style="text;html=1;strokeColor=none;fillColor=none;align=center;verticalAlign=middle;whiteSpace=wrap;rounded=0;fontSize=16;" vertex="1" parent="1">
          <mxGeometry x="-79" y="403" width="25" height="22" as="geometry" />
        </mxCell>
        <mxCell id="8mlJLfbpaPkKjLBRqVDz-60" value="&lt;p style=&quot;line-height: 100%;&quot;&gt;&lt;font style=&quot;font-size: 8px;&quot;&gt;2&lt;/font&gt;&lt;/p&gt;" style="text;html=1;strokeColor=none;fillColor=none;align=center;verticalAlign=middle;whiteSpace=wrap;rounded=0;fontSize=16;" vertex="1" parent="1">
          <mxGeometry x="-49" y="429" width="25" height="22" as="geometry" />
        </mxCell>
        <mxCell id="8mlJLfbpaPkKjLBRqVDz-61" value="&lt;p style=&quot;line-height: 100%;&quot;&gt;&lt;font style=&quot;font-size: 8px;&quot;&gt;3&lt;/font&gt;&lt;/p&gt;" style="text;html=1;strokeColor=none;fillColor=none;align=center;verticalAlign=middle;whiteSpace=wrap;rounded=0;fontSize=16;" vertex="1" parent="1">
          <mxGeometry x="-52" y="468" width="25" height="22" as="geometry" />
        </mxCell>
        <mxCell id="8mlJLfbpaPkKjLBRqVDz-62" value="&lt;p style=&quot;line-height: 100%;&quot;&gt;&lt;font style=&quot;font-size: 8px;&quot;&gt;4&lt;/font&gt;&lt;/p&gt;" style="text;html=1;strokeColor=none;fillColor=none;align=center;verticalAlign=middle;whiteSpace=wrap;rounded=0;fontSize=16;" vertex="1" parent="1">
          <mxGeometry x="-79" y="495" width="25" height="22" as="geometry" />
        </mxCell>
        <mxCell id="8mlJLfbpaPkKjLBRqVDz-63" value="&lt;p style=&quot;line-height: 100%;&quot;&gt;&lt;font style=&quot;font-size: 8px;&quot;&gt;5&lt;/font&gt;&lt;/p&gt;" style="text;html=1;strokeColor=none;fillColor=none;align=center;verticalAlign=middle;whiteSpace=wrap;rounded=0;fontSize=16;" vertex="1" parent="1">
          <mxGeometry x="-115" y="495" width="25" height="22" as="geometry" />
        </mxCell>
        <mxCell id="8mlJLfbpaPkKjLBRqVDz-64" value="&lt;p style=&quot;line-height: 100%;&quot;&gt;&lt;font style=&quot;font-size: 8px;&quot;&gt;6&lt;/font&gt;&lt;/p&gt;" style="text;html=1;strokeColor=none;fillColor=none;align=center;verticalAlign=middle;whiteSpace=wrap;rounded=0;fontSize=16;" vertex="1" parent="1">
          <mxGeometry x="-144" y="468" width="25" height="22" as="geometry" />
        </mxCell>
        <mxCell id="8mlJLfbpaPkKjLBRqVDz-65" value="&lt;p style=&quot;line-height: 100%;&quot;&gt;&lt;font style=&quot;font-size: 8px;&quot;&gt;7&lt;/font&gt;&lt;/p&gt;" style="text;html=1;strokeColor=none;fillColor=none;align=center;verticalAlign=middle;whiteSpace=wrap;rounded=0;fontSize=16;" vertex="1" parent="1">
          <mxGeometry x="-144" y="429" width="25" height="22" as="geometry" />
        </mxCell>
        <mxCell id="8mlJLfbpaPkKjLBRqVDz-66" value="&lt;p style=&quot;line-height: 100%;&quot;&gt;&lt;font style=&quot;font-size: 8px;&quot;&gt;8&lt;/font&gt;&lt;/p&gt;" style="text;html=1;strokeColor=none;fillColor=none;align=center;verticalAlign=middle;whiteSpace=wrap;rounded=0;fontSize=16;" vertex="1" parent="1">
          <mxGeometry x="-115" y="403" width="25" height="22" as="geometry" />
        </mxCell>
        <mxCell id="8mlJLfbpaPkKjLBRqVDz-67" value="" style="ellipse;whiteSpace=wrap;html=1;aspect=fixed;fontSize=16;" vertex="1" parent="1">
          <mxGeometry x="144" y="400" width="120" height="120" as="geometry" />
        </mxCell>
        <mxCell id="8mlJLfbpaPkKjLBRqVDz-68" value="" style="ellipse;whiteSpace=wrap;html=1;aspect=fixed;fontSize=16;" vertex="1" parent="1">
          <mxGeometry x="164" y="420" width="80" height="80" as="geometry" />
        </mxCell>
        <mxCell id="8mlJLfbpaPkKjLBRqVDz-69" value="" style="endArrow=none;html=1;rounded=0;fontSize=12;startSize=8;endSize=8;curved=1;" edge="1" parent="1" source="8mlJLfbpaPkKjLBRqVDz-68">
          <mxGeometry width="50" height="50" relative="1" as="geometry">
            <mxPoint x="154" y="450" as="sourcePoint" />
            <mxPoint x="204" y="400" as="targetPoint" />
          </mxGeometry>
        </mxCell>
        <mxCell id="8mlJLfbpaPkKjLBRqVDz-71" value="" style="endArrow=none;html=1;rounded=0;fontSize=12;startSize=8;endSize=8;curved=1;entryX=1;entryY=0;entryDx=0;entryDy=0;exitX=1;exitY=0;exitDx=0;exitDy=0;" edge="1" parent="1" source="8mlJLfbpaPkKjLBRqVDz-68" target="8mlJLfbpaPkKjLBRqVDz-67">
          <mxGeometry width="50" height="50" relative="1" as="geometry">
            <mxPoint x="214" y="430" as="sourcePoint" />
            <mxPoint x="214" y="410" as="targetPoint" />
          </mxGeometry>
        </mxCell>
        <mxCell id="8mlJLfbpaPkKjLBRqVDz-72" value="" style="endArrow=none;html=1;rounded=0;fontSize=12;startSize=8;endSize=8;curved=1;exitX=1;exitY=0.5;exitDx=0;exitDy=0;entryX=1;entryY=0.5;entryDx=0;entryDy=0;" edge="1" parent="1" source="8mlJLfbpaPkKjLBRqVDz-68" target="8mlJLfbpaPkKjLBRqVDz-67">
          <mxGeometry width="50" height="50" relative="1" as="geometry">
            <mxPoint x="224" y="440" as="sourcePoint" />
            <mxPoint x="224" y="420" as="targetPoint" />
          </mxGeometry>
        </mxCell>
        <mxCell id="8mlJLfbpaPkKjLBRqVDz-73" value="" style="endArrow=none;html=1;rounded=0;fontSize=12;startSize=8;endSize=8;curved=1;exitX=0.5;exitY=1;exitDx=0;exitDy=0;entryX=0.5;entryY=1;entryDx=0;entryDy=0;" edge="1" parent="1" source="8mlJLfbpaPkKjLBRqVDz-67" target="8mlJLfbpaPkKjLBRqVDz-68">
          <mxGeometry width="50" height="50" relative="1" as="geometry">
            <mxPoint x="234" y="450" as="sourcePoint" />
            <mxPoint x="234" y="430" as="targetPoint" />
          </mxGeometry>
        </mxCell>
        <mxCell id="8mlJLfbpaPkKjLBRqVDz-74" value="" style="endArrow=none;html=1;rounded=0;fontSize=12;startSize=8;endSize=8;curved=1;exitX=1;exitY=1;exitDx=0;exitDy=0;" edge="1" parent="1" source="8mlJLfbpaPkKjLBRqVDz-67" target="8mlJLfbpaPkKjLBRqVDz-68">
          <mxGeometry width="50" height="50" relative="1" as="geometry">
            <mxPoint x="244" y="460" as="sourcePoint" />
            <mxPoint x="244" y="440" as="targetPoint" />
          </mxGeometry>
        </mxCell>
        <mxCell id="8mlJLfbpaPkKjLBRqVDz-75" value="" style="endArrow=none;html=1;rounded=0;fontSize=12;startSize=8;endSize=8;curved=1;entryX=0;entryY=1;entryDx=0;entryDy=0;exitX=0;exitY=1;exitDx=0;exitDy=0;" edge="1" parent="1" source="8mlJLfbpaPkKjLBRqVDz-68" target="8mlJLfbpaPkKjLBRqVDz-67">
          <mxGeometry width="50" height="50" relative="1" as="geometry">
            <mxPoint x="254" y="470" as="sourcePoint" />
            <mxPoint x="254" y="450" as="targetPoint" />
          </mxGeometry>
        </mxCell>
        <mxCell id="8mlJLfbpaPkKjLBRqVDz-76" value="" style="endArrow=none;html=1;rounded=0;fontSize=12;startSize=8;endSize=8;curved=1;entryX=0;entryY=0.5;entryDx=0;entryDy=0;exitX=0;exitY=0.5;exitDx=0;exitDy=0;" edge="1" parent="1" source="8mlJLfbpaPkKjLBRqVDz-67" target="8mlJLfbpaPkKjLBRqVDz-68">
          <mxGeometry width="50" height="50" relative="1" as="geometry">
            <mxPoint x="264" y="480" as="sourcePoint" />
            <mxPoint x="264" y="460" as="targetPoint" />
          </mxGeometry>
        </mxCell>
        <mxCell id="8mlJLfbpaPkKjLBRqVDz-77" value="" style="endArrow=none;html=1;rounded=0;fontSize=12;startSize=8;endSize=8;curved=1;entryX=0;entryY=0;entryDx=0;entryDy=0;" edge="1" parent="1" source="8mlJLfbpaPkKjLBRqVDz-68" target="8mlJLfbpaPkKjLBRqVDz-67">
          <mxGeometry width="50" height="50" relative="1" as="geometry">
            <mxPoint x="274" y="490" as="sourcePoint" />
            <mxPoint x="274" y="470" as="targetPoint" />
          </mxGeometry>
        </mxCell>
        <mxCell id="8mlJLfbpaPkKjLBRqVDz-81" value="&lt;p style=&quot;line-height: 100%;&quot;&gt;&lt;font style=&quot;font-size: 8px;&quot;&gt;1&lt;/font&gt;&lt;/p&gt;" style="text;html=1;strokeColor=none;fillColor=none;align=center;verticalAlign=middle;whiteSpace=wrap;rounded=0;fontSize=16;" vertex="1" parent="1">
          <mxGeometry x="209" y="403" width="25" height="22" as="geometry" />
        </mxCell>
        <mxCell id="8mlJLfbpaPkKjLBRqVDz-82" value="&lt;p style=&quot;line-height: 100%;&quot;&gt;&lt;font style=&quot;font-size: 8px;&quot;&gt;2&lt;/font&gt;&lt;/p&gt;" style="text;html=1;strokeColor=none;fillColor=none;align=center;verticalAlign=middle;whiteSpace=wrap;rounded=0;fontSize=16;" vertex="1" parent="1">
          <mxGeometry x="239" y="429" width="25" height="22" as="geometry" />
        </mxCell>
        <mxCell id="8mlJLfbpaPkKjLBRqVDz-83" value="&lt;p style=&quot;line-height: 100%;&quot;&gt;&lt;font style=&quot;font-size: 8px;&quot;&gt;3&lt;/font&gt;&lt;/p&gt;" style="text;html=1;strokeColor=none;fillColor=none;align=center;verticalAlign=middle;whiteSpace=wrap;rounded=0;fontSize=16;" vertex="1" parent="1">
          <mxGeometry x="236" y="468" width="25" height="22" as="geometry" />
        </mxCell>
        <mxCell id="8mlJLfbpaPkKjLBRqVDz-84" value="&lt;p style=&quot;line-height: 100%;&quot;&gt;&lt;font style=&quot;font-size: 8px;&quot;&gt;4&lt;/font&gt;&lt;/p&gt;" style="text;html=1;strokeColor=none;fillColor=none;align=center;verticalAlign=middle;whiteSpace=wrap;rounded=0;fontSize=16;" vertex="1" parent="1">
          <mxGeometry x="209" y="495" width="25" height="22" as="geometry" />
        </mxCell>
        <mxCell id="8mlJLfbpaPkKjLBRqVDz-85" value="&lt;p style=&quot;line-height: 100%;&quot;&gt;&lt;font style=&quot;font-size: 8px;&quot;&gt;5&lt;/font&gt;&lt;/p&gt;" style="text;html=1;strokeColor=none;fillColor=none;align=center;verticalAlign=middle;whiteSpace=wrap;rounded=0;fontSize=16;" vertex="1" parent="1">
          <mxGeometry x="173" y="495" width="25" height="22" as="geometry" />
        </mxCell>
        <mxCell id="8mlJLfbpaPkKjLBRqVDz-86" value="&lt;p style=&quot;line-height: 100%;&quot;&gt;&lt;font style=&quot;font-size: 8px;&quot;&gt;6&lt;/font&gt;&lt;/p&gt;" style="text;html=1;strokeColor=none;fillColor=none;align=center;verticalAlign=middle;whiteSpace=wrap;rounded=0;fontSize=16;" vertex="1" parent="1">
          <mxGeometry x="144" y="468" width="25" height="22" as="geometry" />
        </mxCell>
        <mxCell id="8mlJLfbpaPkKjLBRqVDz-87" value="&lt;p style=&quot;line-height: 100%;&quot;&gt;&lt;font style=&quot;font-size: 8px;&quot;&gt;7&lt;/font&gt;&lt;/p&gt;" style="text;html=1;strokeColor=none;fillColor=none;align=center;verticalAlign=middle;whiteSpace=wrap;rounded=0;fontSize=16;" vertex="1" parent="1">
          <mxGeometry x="144" y="429" width="25" height="22" as="geometry" />
        </mxCell>
        <mxCell id="8mlJLfbpaPkKjLBRqVDz-88" value="&lt;p style=&quot;line-height: 100%;&quot;&gt;&lt;font style=&quot;font-size: 8px;&quot;&gt;8&lt;/font&gt;&lt;/p&gt;" style="text;html=1;strokeColor=none;fillColor=none;align=center;verticalAlign=middle;whiteSpace=wrap;rounded=0;fontSize=16;" vertex="1" parent="1">
          <mxGeometry x="173" y="403" width="25" height="22" as="geometry" />
        </mxCell>
        <mxCell id="8mlJLfbpaPkKjLBRqVDz-132" style="edgeStyle=none;curved=1;rounded=0;orthogonalLoop=1;jettySize=auto;html=1;exitX=0.5;exitY=0;exitDx=0;exitDy=0;fontSize=12;startSize=8;endSize=8;" edge="1" parent="1">
          <mxGeometry relative="1" as="geometry">
            <mxPoint x="-333.12" y="707.55" as="sourcePoint" />
            <mxPoint x="-333.12" y="707.55" as="targetPoint" />
          </mxGeometry>
        </mxCell>
        <mxCell id="8mlJLfbpaPkKjLBRqVDz-133" value="" style="endArrow=classic;html=1;rounded=0;fontSize=12;startSize=8;endSize=8;curved=1;strokeColor=#000000;" edge="1" parent="1">
          <mxGeometry width="50" height="50" relative="1" as="geometry">
            <mxPoint x="-281.12" y="709.19" as="sourcePoint" />
            <mxPoint x="-327.12" y="707.55" as="targetPoint" />
          </mxGeometry>
        </mxCell>
        <mxCell id="8mlJLfbpaPkKjLBRqVDz-134" value="1" style="edgeLabel;html=1;align=center;verticalAlign=middle;resizable=0;points=[];fontSize=8;fontColor=#000000;labelBackgroundColor=#FFFFFF;" vertex="1" connectable="0" parent="8mlJLfbpaPkKjLBRqVDz-133">
          <mxGeometry x="-0.6305" relative="1" as="geometry">
            <mxPoint x="16" as="offset" />
          </mxGeometry>
        </mxCell>
        <mxCell id="8mlJLfbpaPkKjLBRqVDz-135" value="" style="endArrow=classic;html=1;rounded=0;fontSize=12;startSize=8;endSize=8;curved=1;strokeColor=#000000;" edge="1" parent="1">
          <mxGeometry width="50" height="50" relative="1" as="geometry">
            <mxPoint x="-364.12" y="592.19" as="sourcePoint" />
            <mxPoint x="-369.12" y="628.19" as="targetPoint" />
          </mxGeometry>
        </mxCell>
        <mxCell id="8mlJLfbpaPkKjLBRqVDz-136" value="2" style="edgeLabel;html=1;align=center;verticalAlign=middle;resizable=0;points=[];fontSize=8;fontColor=#000000;labelBackgroundColor=#FFFFFF;" vertex="1" connectable="0" parent="8mlJLfbpaPkKjLBRqVDz-135">
          <mxGeometry x="-0.7072" relative="1" as="geometry">
            <mxPoint x="1" y="-12" as="offset" />
          </mxGeometry>
        </mxCell>
        <mxCell id="8mlJLfbpaPkKjLBRqVDz-137" value="" style="endArrow=classic;html=1;rounded=0;fontSize=12;startSize=8;endSize=8;curved=1;strokeColor=#000000;" edge="1" parent="1">
          <mxGeometry width="50" height="50" relative="1" as="geometry">
            <mxPoint x="-351.12" y="596.19" as="sourcePoint" />
            <mxPoint x="-356.12" y="632.19" as="targetPoint" />
          </mxGeometry>
        </mxCell>
        <mxCell id="8mlJLfbpaPkKjLBRqVDz-138" value="3" style="edgeLabel;html=1;align=center;verticalAlign=middle;resizable=0;points=[];fontSize=8;fontColor=#000000;labelBackgroundColor=#FFFFFF;" vertex="1" connectable="0" parent="8mlJLfbpaPkKjLBRqVDz-137">
          <mxGeometry x="-0.514" relative="1" as="geometry">
            <mxPoint x="2" y="-15" as="offset" />
          </mxGeometry>
        </mxCell>
        <mxCell id="8mlJLfbpaPkKjLBRqVDz-139" style="edgeStyle=none;curved=1;rounded=0;orthogonalLoop=1;jettySize=auto;html=1;exitX=0.5;exitY=0;exitDx=0;exitDy=0;fontSize=12;startSize=8;endSize=8;" edge="1" parent="1">
          <mxGeometry relative="1" as="geometry">
            <mxPoint x="-148" y="436.79" as="sourcePoint" />
            <mxPoint x="-148" y="436.79" as="targetPoint" />
          </mxGeometry>
        </mxCell>
        <mxCell id="8mlJLfbpaPkKjLBRqVDz-140" value="" style="endArrow=classic;html=1;rounded=0;fontSize=12;startSize=8;endSize=8;curved=1;strokeColor=#000000;" edge="1" parent="1">
          <mxGeometry width="50" height="50" relative="1" as="geometry">
            <mxPoint x="-179" y="411.39" as="sourcePoint" />
            <mxPoint x="-142" y="436.79" as="targetPoint" />
          </mxGeometry>
        </mxCell>
        <mxCell id="8mlJLfbpaPkKjLBRqVDz-141" value="1" style="edgeLabel;html=1;align=center;verticalAlign=middle;resizable=0;points=[];fontSize=8;fontColor=#000000;labelBackgroundColor=#FFFFFF;" vertex="1" connectable="0" parent="8mlJLfbpaPkKjLBRqVDz-140">
          <mxGeometry x="-0.6305" relative="1" as="geometry">
            <mxPoint x="-12" y="-11" as="offset" />
          </mxGeometry>
        </mxCell>
        <mxCell id="8mlJLfbpaPkKjLBRqVDz-142" value="" style="endArrow=classic;html=1;rounded=0;fontSize=12;startSize=8;endSize=8;curved=1;strokeColor=#000000;" edge="1" parent="1">
          <mxGeometry width="50" height="50" relative="1" as="geometry">
            <mxPoint x="-74" y="548" as="sourcePoint" />
            <mxPoint x="-72" y="520" as="targetPoint" />
          </mxGeometry>
        </mxCell>
        <mxCell id="8mlJLfbpaPkKjLBRqVDz-143" value="2" style="edgeLabel;html=1;align=center;verticalAlign=middle;resizable=0;points=[];fontSize=8;fontColor=#000000;labelBackgroundColor=#FFFFFF;" vertex="1" connectable="0" parent="8mlJLfbpaPkKjLBRqVDz-142">
          <mxGeometry x="-0.7072" relative="1" as="geometry">
            <mxPoint x="-2" y="11" as="offset" />
          </mxGeometry>
        </mxCell>
        <mxCell id="8mlJLfbpaPkKjLBRqVDz-144" value="" style="endArrow=classic;html=1;rounded=0;fontSize=12;startSize=8;endSize=8;curved=1;strokeColor=#000000;" edge="1" parent="1">
          <mxGeometry width="50" height="50" relative="1" as="geometry">
            <mxPoint x="11" y="422.52" as="sourcePoint" />
            <mxPoint x="-27" y="440.72" as="targetPoint" />
          </mxGeometry>
        </mxCell>
        <mxCell id="8mlJLfbpaPkKjLBRqVDz-145" value="3" style="edgeLabel;html=1;align=center;verticalAlign=middle;resizable=0;points=[];fontSize=8;fontColor=#000000;labelBackgroundColor=#FFFFFF;" vertex="1" connectable="0" parent="8mlJLfbpaPkKjLBRqVDz-144">
          <mxGeometry x="-0.514" relative="1" as="geometry">
            <mxPoint x="15" y="-7" as="offset" />
          </mxGeometry>
        </mxCell>
        <mxCell id="8mlJLfbpaPkKjLBRqVDz-146" value="" style="rounded=0;whiteSpace=wrap;html=1;fontSize=16;" vertex="1" parent="1">
          <mxGeometry x="373" y="65" width="755" height="47" as="geometry" />
        </mxCell>
        <mxCell id="8mlJLfbpaPkKjLBRqVDz-147" value="Robot 1" style="ellipse;whiteSpace=wrap;html=1;aspect=fixed;fontSize=16;opacity=50;" vertex="1" parent="1">
          <mxGeometry x="462" y="53" width="129" height="129" as="geometry" />
        </mxCell>
        <mxCell id="8mlJLfbpaPkKjLBRqVDz-148" value="Robot 2" style="ellipse;whiteSpace=wrap;html=1;aspect=fixed;fontSize=16;opacity=50;" vertex="1" parent="1">
          <mxGeometry x="641" y="52.5" width="129" height="129" as="geometry" />
        </mxCell>
        <mxCell id="8mlJLfbpaPkKjLBRqVDz-149" value="Robot 3" style="ellipse;whiteSpace=wrap;html=1;aspect=fixed;fontSize=16;opacity=50;" vertex="1" parent="1">
          <mxGeometry x="827" y="52.5" width="129" height="129" as="geometry" />
        </mxCell>
        <mxCell id="8mlJLfbpaPkKjLBRqVDz-150" value="" style="endArrow=classic;html=1;rounded=0;fontSize=12;startSize=8;endSize=8;curved=1;entryX=0.03;entryY=1.021;entryDx=0;entryDy=0;entryPerimeter=0;" edge="1" parent="1" target="8mlJLfbpaPkKjLBRqVDz-146">
          <mxGeometry width="50" height="50" relative="1" as="geometry">
            <mxPoint x="396" y="169" as="sourcePoint" />
            <mxPoint x="274" y="139" as="targetPoint" />
          </mxGeometry>
        </mxCell>
        <mxCell id="8mlJLfbpaPkKjLBRqVDz-151" value="Detection" style="text;html=1;strokeColor=none;fillColor=none;align=center;verticalAlign=middle;whiteSpace=wrap;rounded=0;fontSize=16;" vertex="1" parent="1">
          <mxGeometry x="368" y="177" width="60" height="30" as="geometry" />
        </mxCell>
        <mxCell id="8mlJLfbpaPkKjLBRqVDz-152" value="" style="shape=flexArrow;endArrow=classic;html=1;rounded=0;fontSize=12;startSize=8;endSize=10.32;curved=1;endWidth=30;startWidth=30;width=30;" edge="1" parent="1">
          <mxGeometry width="50" height="50" relative="1" as="geometry">
            <mxPoint x="373" y="-2" as="sourcePoint" />
            <mxPoint x="579" y="-2" as="targetPoint" />
          </mxGeometry>
        </mxCell>
        <mxCell id="8mlJLfbpaPkKjLBRqVDz-153" value="Flow Direction" style="edgeLabel;html=1;align=center;verticalAlign=middle;resizable=0;points=[];fontSize=16;" vertex="1" connectable="0" parent="8mlJLfbpaPkKjLBRqVDz-152">
          <mxGeometry x="-0.4007" y="-4" relative="1" as="geometry">
            <mxPoint x="17" y="-4" as="offset" />
          </mxGeometry>
        </mxCell>
        <mxCell id="8mlJLfbpaPkKjLBRqVDz-154" value="" style="shape=flexArrow;endArrow=classic;html=1;rounded=0;fontSize=12;startSize=8;endSize=8;curved=1;endWidth=110.66666666666667;width=30;" edge="1" parent="1">
          <mxGeometry width="50" height="50" relative="1" as="geometry">
            <mxPoint x="192" y="356" as="sourcePoint" />
            <mxPoint x="284" y="258" as="targetPoint" />
          </mxGeometry>
        </mxCell>
        <mxCell id="8mlJLfbpaPkKjLBRqVDz-155" value="" style="endArrow=classic;html=1;rounded=0;fontSize=12;startSize=8;endSize=8;curved=1;entryX=0.03;entryY=1.021;entryDx=0;entryDy=0;entryPerimeter=0;" edge="1" parent="1">
          <mxGeometry width="50" height="50" relative="1" as="geometry">
            <mxPoint x="1005" y="170" as="sourcePoint" />
            <mxPoint x="1005" y="114" as="targetPoint" />
          </mxGeometry>
        </mxCell>
        <mxCell id="8mlJLfbpaPkKjLBRqVDz-156" value="Fill Check" style="text;html=1;strokeColor=none;fillColor=none;align=center;verticalAlign=middle;whiteSpace=wrap;rounded=0;fontSize=16;" vertex="1" parent="1">
          <mxGeometry x="977" y="178" width="60" height="30" as="geometry" />
        </mxCell>
        <mxCell id="8mlJLfbpaPkKjLBRqVDz-157" value="" style="endArrow=classic;html=1;rounded=0;fontSize=12;startSize=8;endSize=8;curved=1;entryX=0.03;entryY=1.021;entryDx=0;entryDy=0;entryPerimeter=0;" edge="1" parent="1">
          <mxGeometry width="50" height="50" relative="1" as="geometry">
            <mxPoint x="1092" y="170" as="sourcePoint" />
            <mxPoint x="1092" y="114" as="targetPoint" />
          </mxGeometry>
        </mxCell>
        <mxCell id="8mlJLfbpaPkKjLBRqVDz-158" value="Cleanup" style="text;html=1;strokeColor=none;fillColor=none;align=center;verticalAlign=middle;whiteSpace=wrap;rounded=0;fontSize=16;" vertex="1" parent="1">
          <mxGeometry x="1064" y="178" width="60" height="30" as="geometry" />
        </mxCell>
        <mxCell id="8mlJLfbpaPkKjLBRqVDz-159" value="" style="ellipse;whiteSpace=wrap;html=1;aspect=fixed;fontSize=16;" vertex="1" parent="1">
          <mxGeometry x="385" y="80" width="20" height="20" as="geometry" />
        </mxCell>
        <mxCell id="8mlJLfbpaPkKjLBRqVDz-160" value="" style="ellipse;whiteSpace=wrap;html=1;aspect=fixed;fontSize=16;" vertex="1" parent="1">
          <mxGeometry x="435" y="80" width="20" height="20" as="geometry" />
        </mxCell>
        <mxCell id="8mlJLfbpaPkKjLBRqVDz-161" value="" style="ellipse;whiteSpace=wrap;html=1;aspect=fixed;fontSize=16;" vertex="1" parent="1">
          <mxGeometry x="485" y="80" width="20" height="20" as="geometry" />
        </mxCell>
        <mxCell id="8mlJLfbpaPkKjLBRqVDz-162" value="" style="ellipse;whiteSpace=wrap;html=1;aspect=fixed;fontSize=16;" vertex="1" parent="1">
          <mxGeometry x="535" y="80" width="20" height="20" as="geometry" />
        </mxCell>
        <mxCell id="8mlJLfbpaPkKjLBRqVDz-163" value="" style="ellipse;whiteSpace=wrap;html=1;aspect=fixed;fontSize=16;" vertex="1" parent="1">
          <mxGeometry x="585" y="80" width="20" height="20" as="geometry" />
        </mxCell>
        <mxCell id="8mlJLfbpaPkKjLBRqVDz-164" value="" style="ellipse;whiteSpace=wrap;html=1;aspect=fixed;fontSize=16;" vertex="1" parent="1">
          <mxGeometry x="635" y="80" width="20" height="20" as="geometry" />
        </mxCell>
        <mxCell id="8mlJLfbpaPkKjLBRqVDz-165" value="" style="ellipse;whiteSpace=wrap;html=1;aspect=fixed;fontSize=16;" vertex="1" parent="1">
          <mxGeometry x="685" y="80" width="20" height="20" as="geometry" />
        </mxCell>
        <mxCell id="8mlJLfbpaPkKjLBRqVDz-166" value="" style="ellipse;whiteSpace=wrap;html=1;aspect=fixed;fontSize=16;" vertex="1" parent="1">
          <mxGeometry x="735" y="80" width="20" height="20" as="geometry" />
        </mxCell>
        <mxCell id="8mlJLfbpaPkKjLBRqVDz-167" value="" style="ellipse;whiteSpace=wrap;html=1;aspect=fixed;fontSize=16;" vertex="1" parent="1">
          <mxGeometry x="835" y="80" width="20" height="20" as="geometry" />
        </mxCell>
        <mxCell id="8mlJLfbpaPkKjLBRqVDz-168" value="" style="ellipse;whiteSpace=wrap;html=1;aspect=fixed;fontSize=16;" vertex="1" parent="1">
          <mxGeometry x="785" y="80" width="20" height="20" as="geometry" />
        </mxCell>
        <mxCell id="8mlJLfbpaPkKjLBRqVDz-169" value="" style="ellipse;whiteSpace=wrap;html=1;aspect=fixed;fontSize=16;" vertex="1" parent="1">
          <mxGeometry x="885" y="80" width="20" height="20" as="geometry" />
        </mxCell>
        <mxCell id="8mlJLfbpaPkKjLBRqVDz-170" value="" style="ellipse;whiteSpace=wrap;html=1;aspect=fixed;fontSize=16;" vertex="1" parent="1">
          <mxGeometry x="935" y="80" width="20" height="20" as="geometry" />
        </mxCell>
        <mxCell id="8mlJLfbpaPkKjLBRqVDz-171" value="" style="ellipse;whiteSpace=wrap;html=1;aspect=fixed;fontSize=16;" vertex="1" parent="1">
          <mxGeometry x="985" y="80" width="20" height="20" as="geometry" />
        </mxCell>
        <mxCell id="8mlJLfbpaPkKjLBRqVDz-172" value="" style="ellipse;whiteSpace=wrap;html=1;aspect=fixed;fontSize=16;" vertex="1" parent="1">
          <mxGeometry x="1035" y="80" width="20" height="20" as="geometry" />
        </mxCell>
        <mxCell id="8mlJLfbpaPkKjLBRqVDz-173" value="" style="ellipse;whiteSpace=wrap;html=1;aspect=fixed;fontSize=16;" vertex="1" parent="1">
          <mxGeometry x="1085" y="80" width="20" height="20" as="geometry" />
        </mxCell>
        <mxCell id="8mlJLfbpaPkKjLBRqVDz-174" value="" style="whiteSpace=wrap;html=1;aspect=fixed;fontSize=16;" vertex="1" parent="1">
          <mxGeometry x="626" y="257" width="80" height="80" as="geometry" />
        </mxCell>
      </root>
    </mxGraphModel>
  </diagram>
</mxfile>
